<?xml version="1.0" standalone="no"?>
<!DOCTYPE svg PUBLIC "-//W3C//DTD SVG 20010904//EN"
 "http://www.w3.org/TR/2001/REC-SVG-20010904/DTD/svg10.dtd">
<svg version="1.0" xmlns="http://www.w3.org/2000/svg"
 width="195.000000pt" height="195.000000pt" viewBox="0 0 195.000000 195.000000"
 preserveAspectRatio="xMidYMid meet">
<metadata>
Created by potrace 1.14, written by Peter Selinger 2001-2017
</metadata>
<g transform="translate(0.000000,195.000000) scale(0.100000,-0.100000)"
fill="#000000" stroke="none">
<path d="M67 1844 c-37 -20 -47 -50 -47 -136 0 -76 19 -123 55 -135 11 -4 49
-8 85 -9 36 -1 67 -3 70 -4 3 -1 10 -1 15 0 6 1 19 3 30 4 63 6 92 56 90 156
-3 77 -20 115 -61 130 -41 16 -205 12 -237 -6z"/>
<path d="M469 1841 c-21 -17 -24 -30 -27 -100 -6 -114 2 -148 39 -166 17 -9
39 -13 51 -9 15 4 18 3 13 -6 -6 -9 -4 -11 4 -5 16 9 231 12 237 3 3 -4 12 -4
20 -1 9 3 28 7 43 8 47 3 50 5 67 30 13 19 16 48 16 122 -1 85 -4 99 -23 119
-22 24 -25 24 -220 24 -179 0 -199 -2 -220 -19z"/>
<path d="M1035 1835 c-23 -22 -25 -32 -25 -119 0 -113 16 -152 63 -151 16 1
31 -3 33 -7 3 -5 10 -5 16 -2 16 10 219 11 225 1 2 -4 9 -5 14 -1 6 3 31 7 57
9 67 5 82 26 83 129 2 114 1 118 -27 144 -24 21 -32 22 -220 22 -194 0 -195 0
-219 -25z"/>
<path d="M1630 1847 c-38 -19 -50 -54 -50 -142 1 -63 5 -85 19 -102 11 -13 24
-23 31 -23 6 0 9 -4 6 -8 -3 -5 21 -9 52 -10 31 -1 62 -3 67 -4 6 -1 21 2 34
6 18 6 22 5 15 -5 -6 -11 -5 -12 8 -2 8 7 17 10 20 7 12 -11 69 28 79 54 10
25 13 82 10 155 -1 17 -13 40 -30 58 -29 28 -32 29 -133 29 -62 0 -113 -5
-128 -13z"/>
<path d="M155 1489 c-24 -4 -48 -17 -62 -33 -20 -24 -23 -38 -23 -110 0 -70 3
-87 23 -114 13 -17 27 -29 30 -25 4 3 7 2 7 -3 0 -6 20 -9 45 -8 31 1 43 -2
38 -10 -5 -8 -3 -8 8 0 8 6 28 11 44 12 23 1 26 -1 15 -8 -8 -5 -10 -10 -4
-10 6 0 14 3 18 7 7 7 23 11 63 15 12 1 19 6 17 10 -3 5 1 11 10 14 19 7 29
54 28 131 -2 107 -31 134 -145 136 -40 1 -91 -1 -112 -4z"/>
<path d="M553 1492 c-13 -2 -32 -15 -44 -30 -19 -24 -20 -37 -17 -131 2 -72 7
-106 16 -109 6 -2 10 -7 8 -11 -5 -8 2 -10 60 -12 26 -1 33 -4 23 -10 -8 -5
-9 -9 -3 -9 6 0 14 3 17 7 13 12 97 11 90 -1 -4 -6 1 -5 10 3 14 11 17 11 17
0 0 -9 3 -10 8 -4 11 15 46 19 36 4 -5 -8 -3 -9 7 -3 24 14 51 16 43 2 -5 -9
-2 -9 9 1 9 7 17 11 17 8 0 -14 61 17 71 35 11 21 15 184 5 216 -12 37 -48 45
-203 46 -81 1 -158 0 -170 -2z"/>
<path d="M1093 1492 c-68 -5 -83 -33 -83 -152 0 -129 11 -143 109 -144 39 0
67 -5 64 -10 -4 -5 0 -6 8 0 22 13 70 14 63 1 -5 -8 -2 -8 7 1 16 15 33 16 23
0 -5 -7 -3 -8 7 -2 20 12 59 13 59 1 0 -6 5 -5 13 1 12 10 18 12 37 12 6 0 19
9 30 20 17 17 20 33 20 125 0 94 -2 106 -22 125 -12 11 -27 20 -32 21 -36 3
-268 3 -303 1z"/>
<path d="M1640 1492 c-87 -10 -110 -41 -110 -153 0 -61 4 -81 20 -101 10 -14
18 -27 16 -29 -3 -2 7 -5 21 -6 14 0 29 -7 34 -15 5 -7 9 -8 9 -3 0 6 9 11 20
12 13 1 18 -2 14 -9 -5 -7 -2 -8 7 -2 22 14 70 14 62 1 -4 -8 -1 -7 9 1 9 7
20 12 24 10 25 -7 73 14 89 39 15 22 19 46 18 113 -1 81 -2 86 -32 112 -23 21
-43 28 -74 29 -23 1 -55 2 -72 3 -16 0 -41 0 -55 -2z"/>
<path d="M589 1118 c-42 -14 -51 -44 -47 -156 4 -135 3 -135 187 -135 148 0
176 4 191 33 12 23 16 185 6 218 -4 12 -17 27 -29 34 -26 14 -270 19 -308 6z"/>
<path d="M1066 1119 c-46 -13 -55 -35 -56 -136 0 -101 12 -141 45 -149 12 -3
84 -6 160 -7 129 -2 139 -1 161 20 13 12 24 32 25 45 6 161 0 201 -34 220 -25
13 -256 19 -301 7z"/>
<path d="M181 1091 c-20 -18 -31 -40 -32 -58 -1 -30 -1 -93 0 -130 1 -12 14
-35 31 -51 25 -25 37 -30 78 -29 27 0 54 -3 60 -7 7 -4 12 -3 12 2 0 8 29 9
55 1 6 -2 21 1 35 5 52 18 70 55 70 146 0 81 -16 120 -55 138 -14 7 -69 12
-124 12 -95 0 -100 -1 -130 -29z"/>
<path d="M1528 1103 c-38 -24 -49 -57 -47 -137 2 -67 21 -126 42 -126 4 0 6
-3 3 -8 -2 -4 19 -8 48 -8 29 0 58 -4 64 -8 7 -4 12 -3 12 2 0 10 42 8 59 -3
6 -3 11 -2 11 4 0 5 9 8 20 6 11 -2 22 1 25 6 4 5 11 7 16 4 5 -4 9 -2 9 4 0
5 7 17 16 25 11 12 16 39 18 96 4 89 -14 133 -60 150 -44 17 -205 12 -236 -7z"/>
<path d="M613 739 c-27 -10 -54 -49 -58 -84 -1 -15 8 -41 21 -61 13 -18 21
-34 19 -34 -2 0 9 -14 25 -30 17 -17 30 -34 30 -39 0 -5 16 -26 35 -47 19 -20
33 -40 30 -42 -2 -2 6 -14 19 -26 12 -11 32 -38 45 -58 12 -21 28 -38 33 -38
6 0 9 -3 5 -6 -3 -3 5 -18 18 -32 13 -14 21 -30 18 -35 -3 -6 -1 -7 5 -3 7 4
12 3 12 -2 0 -4 10 -19 23 -32 12 -14 22 -28 22 -31 0 -4 4 -11 9 -16 5 -5 6
-3 2 5 -6 10 -1 11 21 6 37 -9 34 -9 63 3 28 13 28 13 129 148 41 55 79 103
85 107 6 4 7 8 2 8 -5 0 2 11 16 23 14 13 29 34 33 45 3 12 13 22 21 22 8 0
13 4 10 8 -3 5 6 20 20 35 13 14 24 29 24 33 0 4 7 16 16 25 9 10 17 37 18 59
0 31 -5 46 -27 67 -27 28 -29 28 -167 31 l-140 2 -27 -30 c-35 -40 -70 -39
-105 0 l-27 31 -128 -2 c-70 -1 -138 -5 -150 -10z"/>
</g>
</svg>
